<svg width="256" height="256" viewBox="0 0 256 256" fill="none" xmlns="http://www.w3.org/2000/svg">
  <path d="M128 28L184.5 90.5C187.5 93.9 186 99.2 181.6 100.4C161.5 105.9 145.2 118 133 136.1L96.6 91.2C108.1 77.1 118.7 55.2 128 28Z" fill="#D90F1E"></path>
  <path d="M74 92.7C87.7 92.7 101 97.1 112 105.1L77.9 146.6C71.9 154 67 161.1 62.1 168.2L27.5 168.2C20.8 168.2 17.2 160.3 21.6 155.2L62.2 108.1C65.4 104.4 69.4 99 74 92.7Z" fill="#D90F1E"></path>
  <path d="M126.9 109.7L162.5 154.1C151.9 168.4 143 182.3 133.1 197.8L95.7 154C104.7 143.9 114.8 130.4 126.9 109.7Z" fill="#D90F1E"></path>
  <path d="M182.4 109.7C188.4 116.2 193.8 122.8 198.6 129.5L233.9 168.2H183.9C175.5 155.5 164.2 141.4 148.6 123L144 117.6C155.4 111.7 168.5 108.8 182.4 109.7Z" fill="#D90F1E"></path>
  <path d="M22 171H71C76.7 181.1 83.3 189.9 90.9 197.3C97.8 204 105.4 208.6 113.6 210.8L94.5 233.2C90.7 237.6 83.8 237.6 80.1 233.1L22 171Z" fill="#2457F5"></path>
  <path d="M136.3 210.8C144.5 208.6 152.1 204 159 197.3C166.6 189.9 173.2 181.1 178.9 171H234L176 233.1C172.3 237.6 165.3 237.6 161.6 233.2L142.5 210.8C140.6 211 138.5 211 136.3 210.8Z" fill="#2457F5"></path>
  <path d="M76.6 171H123.3C127 177.7 130.7 183 134.7 186.9C121.8 196.6 105.4 201.7 87.7 201.7C76 201.7 65.2 199.5 55.2 194.9L38.1 171H76.6Z" fill="#2457F5"></path>
  <path d="M178.9 171C169.5 185.9 158.5 196 145.8 201.4C153.5 196.8 161.1 189.4 168.5 179.2L174.8 171H178.9Z" fill="#2457F5"></path>
</svg>